<svg width="219" height="48" viewBox="0 0 219 48" fill="none" xmlns="http://www.w3.org/2000/svg">
<path d="M74.6523 19.576C74.6523 20.7707 74.3643 21.8907 73.7882 22.936C73.2336 23.9813 72.3483 24.824 71.1323 25.464C69.9376 26.104 68.4229 26.424 66.5883 26.424H62.8443V35H58.3643V12.664H66.5883C68.3163 12.664 69.7883 12.9627 71.0043 13.56C72.2203 14.1573 73.1269 14.9787 73.7243 16.024C74.3429 17.0693 74.6523 18.2533 74.6523 19.576ZM66.3963 22.808C67.6336 22.808 68.5509 22.5307 69.1483 21.976C69.7456 21.4 70.0443 20.6 70.0443 19.576C70.0443 17.4 68.8283 16.312 66.3963 16.312H62.8443V22.808H66.3963ZM94.313 25.752C94.313 26.392 94.2703 26.968 94.185 27.48H81.225C81.3317 28.76 81.7797 29.7627 82.569 30.488C83.3583 31.2133 84.329 31.576 85.481 31.576C87.145 31.576 88.329 30.8613 89.033 29.432H93.865C93.353 31.1387 92.3717 32.5467 90.921 33.656C89.4703 34.744 87.689 35.288 85.577 35.288C83.8703 35.288 82.3343 34.9147 80.969 34.168C79.625 33.4 78.569 32.3227 77.801 30.936C77.0543 29.5493 76.681 27.9493 76.681 26.136C76.681 24.3013 77.0543 22.6907 77.801 21.304C78.5477 19.9173 79.593 18.8507 80.937 18.104C82.281 17.3573 83.8277 16.984 85.577 16.984C87.2623 16.984 88.7663 17.3467 90.089 18.072C91.433 18.7973 92.4677 19.832 93.193 21.176C93.9397 22.4987 94.313 24.024 94.313 25.752ZM89.673 24.472C89.6517 23.32 89.2357 22.4027 88.425 21.72C87.6143 21.016 86.6223 20.664 85.449 20.664C84.3397 20.664 83.401 21.0053 82.633 21.688C81.8863 22.3493 81.4277 23.2773 81.257 24.472H89.673ZM102.063 20.024C102.639 19.0853 103.386 18.3493 104.303 17.816C105.242 17.2827 106.308 17.016 107.503 17.016V21.72H106.319C104.911 21.72 103.844 22.0507 103.119 22.712C102.415 23.3733 102.063 24.5253 102.063 26.168V35H97.583V17.272H102.063V20.024ZM117.305 35.288C115.854 35.288 114.553 35.032 113.401 34.52C112.249 33.9867 111.331 33.272 110.649 32.376C109.987 31.48 109.625 30.488 109.561 29.4H114.073C114.158 30.0827 114.489 30.648 115.065 31.096C115.662 31.544 116.398 31.768 117.273 31.768C118.126 31.768 118.787 31.5973 119.257 31.256C119.747 30.9147 119.993 30.4773 119.993 29.944C119.993 29.368 119.694 28.9413 119.097 28.664C118.521 28.3653 117.593 28.0453 116.312 27.704C114.99 27.384 113.902 27.0533 113.049 26.712C112.217 26.3707 111.491 25.848 110.873 25.144C110.275 24.44 109.977 23.4907 109.977 22.296C109.977 21.3147 110.254 20.4187 110.809 19.608C111.385 18.7973 112.195 18.1573 113.241 17.688C114.307 17.2187 115.555 16.984 116.985 16.984C119.097 16.984 120.782 17.5173 122.041 18.584C123.299 19.6293 123.993 21.048 124.121 22.84H119.833C119.769 22.136 119.47 21.5813 118.937 21.176C118.425 20.7493 117.731 20.536 116.857 20.536C116.046 20.536 115.417 20.6853 114.969 20.984C114.542 21.2827 114.329 21.6987 114.329 22.232C114.329 22.8293 114.627 23.288 115.225 23.608C115.822 23.9067 116.75 24.216 118.009 24.536C119.289 24.856 120.345 25.1867 121.177 25.528C122.009 25.8693 122.723 26.4027 123.321 27.128C123.939 27.832 124.259 28.7707 124.281 29.944C124.281 30.968 123.993 31.8853 123.417 32.696C122.862 33.5067 122.051 34.1467 120.985 34.616C119.939 35.064 118.713 35.288 117.305 35.288ZM135.83 35.288C134.123 35.288 132.587 34.9147 131.222 34.168C129.857 33.4 128.779 32.3227 127.99 30.936C127.222 29.5493 126.838 27.9493 126.838 26.136C126.838 24.3227 127.233 22.7227 128.022 21.336C128.833 19.9493 129.931 18.8827 131.318 18.136C132.705 17.368 134.251 16.984 135.958 16.984C137.665 16.984 139.211 17.368 140.598 18.136C141.985 18.8827 143.073 19.9493 143.862 21.336C144.673 22.7227 145.078 24.3227 145.078 26.136C145.078 27.9493 144.662 29.5493 143.83 30.936C143.019 32.3227 141.91 33.4 140.502 34.168C139.115 34.9147 137.558 35.288 135.83 35.288ZM135.83 31.384C136.641 31.384 137.398 31.192 138.102 30.808C138.827 30.4027 139.403 29.8053 139.83 29.016C140.257 28.2267 140.47 27.2667 140.47 26.136C140.47 24.4507 140.022 23.16 139.126 22.264C138.251 21.3467 137.174 20.888 135.894 20.888C134.614 20.888 133.537 21.3467 132.662 22.264C131.809 23.16 131.382 24.4507 131.382 26.136C131.382 27.8213 131.798 29.1227 132.63 30.04C133.483 30.936 134.55 31.384 135.83 31.384ZM158.188 17.016C160.3 17.016 162.007 17.688 163.308 19.032C164.61 20.3547 165.26 22.2107 165.26 24.6V35H160.78V25.208C160.78 23.8 160.428 22.7227 159.724 21.976C159.02 21.208 158.06 20.824 156.844 20.824C155.607 20.824 154.626 21.208 153.9 21.976C153.196 22.7227 152.844 23.8 152.844 25.208V35H148.364V17.272H152.844V19.48C153.442 18.712 154.199 18.1147 155.116 17.688C156.055 17.24 157.079 17.016 158.188 17.016ZM186.001 25.752C186.001 26.392 185.958 26.968 185.873 27.48H172.913C173.019 28.76 173.467 29.7627 174.257 30.488C175.046 31.2133 176.017 31.576 177.169 31.576C178.833 31.576 180.017 30.8613 180.721 29.432H185.553C185.041 31.1387 184.059 32.5467 182.609 33.656C181.158 34.744 179.377 35.288 177.265 35.288C175.558 35.288 174.022 34.9147 172.657 34.168C171.313 33.4 170.257 32.3227 169.489 30.936C168.742 29.5493 168.368 27.9493 168.368 26.136C168.368 24.3013 168.742 22.6907 169.489 21.304C170.235 19.9173 171.281 18.8507 172.625 18.104C173.969 17.3573 175.515 16.984 177.265 16.984C178.95 16.984 180.454 17.3467 181.777 18.072C183.121 18.7973 184.155 19.832 184.881 21.176C185.627 22.4987 186.001 24.024 186.001 25.752ZM181.361 24.472C181.339 23.32 180.923 22.4027 180.113 21.72C179.302 21.016 178.31 20.664 177.137 20.664C176.027 20.664 175.089 21.0053 174.321 21.688C173.574 22.3493 173.115 23.2773 172.945 24.472H181.361ZM194.487 20.952V29.528C194.487 30.1253 194.625 30.5627 194.903 30.84C195.201 31.096 195.692 31.224 196.375 31.224H198.455V35H195.639C191.863 35 189.975 33.1653 189.975 29.496V20.952H187.863V17.272H189.975V12.888H194.487V17.272H198.455V20.952H194.487ZM218.637 17.272L207.661 43.384H202.893L206.733 34.552L199.629 17.272H204.653L209.229 29.656L213.869 17.272H218.637Z" fill="#00BFB3"/>
<rect width="48" height="48" rx="10" fill="#00BFB3"/>
<path d="M21.2778 40H20.0178C19.9356 39.9783 19.8542 39.9499 19.7702 39.9357C18.107 39.656 16.7896 38.8896 15.8921 37.5162C15.8267 37.416 15.6666 37.325 15.5402 37.3108C12.6815 36.9944 10.5842 34.7861 10.5992 32.0836C10.6001 31.8866 10.5523 31.7714 10.3631 31.6595C7.52746 29.9747 7.22417 25.9873 9.88653 24.0929C9.93074 24.062 9.98822 24.047 10.0554 24.017C9.95197 23.9301 9.91129 23.8959 9.87062 23.8617C7.11011 21.5265 7.43373 17.1993 10.6505 15.4243C10.7504 15.3692 10.8096 15.2223 10.8521 15.1062C10.8945 14.991 10.8848 14.8591 10.9096 14.7372C11.4242 12.185 13.6665 10.4334 16.4182 10.4451C16.6225 10.4451 16.7197 10.3741 16.8391 10.2288C17.1353 9.86898 17.4315 9.49579 17.7923 9.19857C19.3476 7.91619 21.6819 7.64234 23.2673 8.62584C23.8005 8.95645 24.1232 8.92974 24.6608 8.66257C27.5195 7.2416 30.7088 8.21925 32.1315 10.5185C32.1881 10.6104 32.3473 10.683 32.4675 10.698C35.3872 11.067 37.3979 13.2085 37.3917 15.967C37.3917 16.1699 37.4819 16.255 37.6428 16.3519C40.1893 17.8931 40.7207 21.2927 38.7534 23.4526C38.5394 23.688 38.3068 23.9084 38.0451 24.1739C38.0876 24.2023 38.1645 24.2432 38.229 24.2975C40.6863 26.3788 40.5775 30.2535 37.9585 32.1521C37.4164 32.5453 37.1459 32.9369 36.9991 33.5647C36.4376 35.9592 34.1988 37.5755 31.5824 37.5596C31.3817 37.5588 31.2712 37.6114 31.1615 37.7734C29.6433 40.0192 26.4107 40.6445 24.0631 39.1459C23.8942 39.0382 23.7952 39.0549 23.6316 39.1493C23.2938 39.3438 22.9463 39.5358 22.5776 39.6652C22.1585 39.813 21.712 39.8915 21.2778 40ZM29.1827 37.1088C28.4594 36.7924 27.8351 36.39 27.3294 35.8389C26.9217 35.3948 26.9226 34.8279 27.3285 34.4664C27.7502 34.0907 28.3586 34.1241 28.7989 34.5749C30.3357 36.1495 32.7257 35.9658 34.1953 34.6442C35.3668 33.5906 35.5242 32.1379 34.6038 30.8805C34.4296 30.6418 34.2165 30.4272 34.0078 30.2126C33.6126 29.8069 33.5905 29.2642 33.9645 28.8893C34.3341 28.5195 34.9265 28.4986 35.3695 28.8459C35.9115 29.2726 36.3244 29.796 36.6436 30.3871C36.6861 30.4656 36.7312 30.5433 36.7842 30.6384C36.8585 30.58 36.9107 30.5433 36.9575 30.5015C38.7162 28.9136 38.2175 26.0983 35.9999 25.1307C35.8266 25.0547 35.6206 25.0155 35.4296 25.013C34.3801 25.0013 33.3296 25.0188 32.2801 25.0013C31.5223 24.9888 31.0873 24.2833 31.4188 23.6413C31.4675 23.5477 31.5276 23.4601 31.5736 23.3657C31.9688 22.5592 31.4489 21.544 30.5488 21.3737C29.9378 21.2585 29.4249 21.4296 29.0606 21.9047C28.6778 22.4031 28.6398 22.9408 28.9528 23.491C29.4223 24.3158 28.9881 25.0046 27.9943 25.0071C27.0995 25.0096 26.2038 25.0071 25.3089 25.0071C25.1692 25.0071 25.0295 25.0071 24.8624 25.0071V25.3845C24.8624 26.4465 24.8633 27.5093 24.8606 28.5713C24.8606 28.7057 24.858 28.8451 24.8209 28.9728C24.6184 29.6633 23.7306 29.8712 23.1117 29.3661C22.5078 28.8718 21.6492 28.9753 21.1169 29.5289C20.6049 30.0615 20.6049 30.9114 21.1151 31.4416C21.6483 31.9943 22.4901 32.0753 23.1143 31.6127C23.4822 31.3397 23.8624 31.2062 24.3062 31.414C24.7475 31.6211 24.8677 31.9859 24.8651 32.4276C24.8553 33.9897 24.858 35.5517 24.8668 37.1138C24.8668 37.2324 24.9163 37.3885 25.0039 37.4645C26.1109 38.4179 28.1994 38.2501 29.1827 37.1088ZM22.857 25.0205C22.7642 25.0155 22.7102 25.0096 22.6563 25.0096C21.7058 25.0096 20.7561 25.008 19.8056 25.0096C19.4068 25.0096 19.1 24.856 18.9011 24.5304C18.7065 24.2123 18.764 23.8992 18.909 23.5736C19.2592 22.7888 18.848 21.8863 18.0239 21.6325C17.4492 21.4555 16.9204 21.5632 16.5049 21.9823C16.0504 22.439 15.9301 22.9775 16.1848 23.5703C16.5438 24.4077 16.122 25.0071 15.167 25.0088C14.2943 25.0113 13.4216 25.0046 12.548 25.013C12.3756 25.0146 12.1952 25.0455 12.0334 25.1006C10.8096 25.5197 10.0492 26.4724 10.0254 27.5994C10.0006 28.7633 10.7699 29.8662 11.9282 30.3279C12.5551 30.5783 12.7576 30.9315 12.6347 31.566C12.2483 33.5664 13.9327 35.4733 16.0937 35.4365C16.7754 35.4248 17.1671 35.6594 17.4465 36.2472C18.3254 38.0931 20.9153 38.7076 22.651 37.5196C22.8102 37.411 22.8782 37.2983 22.8765 37.1096C22.8667 36.0785 22.8729 35.0483 22.8712 34.0172C22.8712 33.9304 22.857 33.8427 22.8499 33.7534C20.5775 34.0965 18.8383 32.4117 18.7507 30.7294C18.7012 29.7752 18.9851 28.9369 19.6792 28.2406C20.5395 27.3782 21.6121 27.0543 22.8588 27.2237V25.0205H22.857ZM33.6948 23.1336C34.3031 23.1336 34.8858 23.1428 35.4685 23.1286C35.6728 23.1236 35.8903 23.0919 36.076 23.0168C37.2829 22.5267 37.8983 21.6409 37.9461 20.4144C37.9929 19.2122 37.2918 18.1978 36.1043 17.6944C35.434 17.4105 35.2386 17.0866 35.3536 16.4487C35.5631 15.2799 35.1829 14.2914 34.3058 13.4665C33.9141 13.0983 33.4508 12.8312 32.8601 12.7001C32.9025 13.0015 32.9415 13.267 32.9768 13.5333C33.0476 14.0693 32.6788 14.5301 32.1182 14.6086C31.6116 14.6796 31.1226 14.3331 31.0218 13.8222C30.9697 13.5567 30.9299 13.2878 30.8918 13.0198C30.7787 12.2234 30.5567 11.4736 29.9369 10.8742C28.7132 9.69115 26.7573 9.55006 25.1604 10.5285C24.9455 10.6605 24.8545 10.8016 24.8545 11.0554C24.8642 14.9593 24.8615 18.864 24.8615 22.768V23.1078H26.7573C26.6087 20.9304 28.4054 19.4485 30.2437 19.4585C32.1324 19.4685 33.8566 21.0114 33.6948 23.1345V23.1336ZM16.0274 12.3394C14.0971 12.5381 12.7611 13.9891 12.8177 15.7825C12.8354 16.3302 12.6577 16.5948 12.1156 16.8303C10.6328 17.474 9.84586 18.6495 10.0183 20.1857C10.2287 22.0625 11.6382 23.5528 14.0467 23.0944C14.1184 20.8327 15.8912 19.7791 17.2821 19.6914C18.1415 19.6371 18.9267 19.8409 19.6137 20.3343C20.5837 21.0306 21.0364 21.974 21.0382 23.1178H22.8588C22.8641 23.0518 22.8712 23.0017 22.8712 22.9516C22.8712 18.9317 22.8738 14.9117 22.8641 10.8926C22.8641 10.769 22.7766 10.6145 22.6775 10.526C21.8623 9.80052 20.6359 9.71119 19.5748 10.2939C18.4377 10.9184 18.0098 11.9069 17.9673 13.0933C17.9452 13.7103 17.5376 14.0885 16.9328 14.0701C16.3554 14.0526 15.9726 13.6427 15.9823 13.0432C15.9858 12.817 16.0106 12.5907 16.0274 12.3402V12.3394Z" fill="white"/>
</svg>
