<svg width="19" height="18" viewBox="0 0 19 18" fill="none" xmlns="http://www.w3.org/2000/svg">
<path d="M3.695 14.0625C4.64 13.4025 5.5775 12.8962 6.5075 12.5437C7.4375 12.1912 8.435 12.015 9.5 12.015C10.565 12.015 11.5662 12.1912 12.5037 12.5437C13.4412 12.8962 14.3825 13.4025 15.3275 14.0625C15.9875 13.2525 16.4563 12.435 16.7337 11.61C17.0112 10.785 17.15 9.915 17.15 9C17.15 6.825 16.4187 5.00625 14.9562 3.54375C13.4937 2.08125 11.675 1.35 9.5 1.35C7.325 1.35 5.50625 2.08125 4.04375 3.54375C2.58125 5.00625 1.85 6.825 1.85 9C1.85 9.915 1.9925 10.785 2.2775 11.61C2.5625 12.435 3.035 13.2525 3.695 14.0625ZM9.5 9.675C8.63 9.675 7.89875 9.37875 7.30625 8.78625C6.71375 8.19375 6.4175 7.4625 6.4175 6.5925C6.4175 5.7225 6.71375 4.99125 7.30625 4.39875C7.89875 3.80625 8.63 3.51 9.5 3.51C10.37 3.51 11.1012 3.80625 11.6937 4.39875C12.2863 4.99125 12.5825 5.7225 12.5825 6.5925C12.5825 7.4625 12.2863 8.19375 11.6937 8.78625C11.1012 9.37875 10.37 9.675 9.5 9.675ZM9.5 18C8.27 18 7.1075 17.7638 6.0125 17.2912C4.9175 16.8187 3.96125 16.1737 3.14375 15.3562C2.32625 14.5387 1.68125 13.5825 1.20875 12.4875C0.73625 11.3925 0.5 10.23 0.5 9C0.5 7.755 0.73625 6.58875 1.20875 5.50125C1.68125 4.41375 2.32625 3.46125 3.14375 2.64375C3.96125 1.82625 4.9175 1.18125 6.0125 0.70875C7.1075 0.23625 8.27 0 9.5 0C10.745 0 11.9112 0.23625 12.9987 0.70875C14.0862 1.18125 15.0387 1.82625 15.8562 2.64375C16.6737 3.46125 17.3187 4.41375 17.7912 5.50125C18.2638 6.58875 18.5 7.755 18.5 9C18.5 10.23 18.2638 11.3925 17.7912 12.4875C17.3187 13.5825 16.6737 14.5387 15.8562 15.3562C15.0387 16.1737 14.0862 16.8187 12.9987 17.2912C11.9112 17.7638 10.745 18 9.5 18ZM9.5 16.65C10.325 16.65 11.1312 16.53 11.9187 16.29C12.7062 16.05 13.4825 15.63 14.2475 15.03C13.4825 14.49 12.7025 14.0775 11.9075 13.7925C11.1125 13.5075 10.31 13.365 9.5 13.365C8.69 13.365 7.8875 13.5075 7.0925 13.7925C6.2975 14.0775 5.5175 14.49 4.7525 15.03C5.5175 15.63 6.29375 16.05 7.08125 16.29C7.86875 16.53 8.675 16.65 9.5 16.65ZM9.5 8.325C10.01 8.325 10.4262 8.16375 10.7487 7.84125C11.0712 7.51875 11.2325 7.1025 11.2325 6.5925C11.2325 6.0825 11.0712 5.66625 10.7487 5.34375C10.4262 5.02125 10.01 4.86 9.5 4.86C8.99 4.86 8.57375 5.02125 8.25125 5.34375C7.92875 5.66625 7.7675 6.0825 7.7675 6.5925C7.7675 7.1025 7.92875 7.51875 8.25125 7.84125C8.57375 8.16375 8.99 8.325 9.5 8.325Z" fill="white"/>
</svg>
